# xmcd
#
# Track frame offsets:
#	150
#	19829
#	46558
#	72404
#	89455
#	109370
#	124212
#	142266
#	156435
#	170164
#	200098
#	218282
#	241041
#	252162
#	275723
#	300708
#	325201
#
# Disc length: 4537
#
# Revision: 2
# Processed by: cddbd v1.5.1PL0 Copyright (c) Steve Scherf et al.
# Submitted via: EasyCDDAExtractor 5.0.6
# Normalized: r1:DSETVAR1
#
DISCID=0011b711
DTITLE=Various Artist - Defqon One [CD1)
DYEAR=2003
DGENRE=Hardtrance/Hardstyle
TTITLE0=Igor S. - Boomrang
TTITLE1=Sarah G. - Filght Path
TTITLE2=Miss S. Hay - Iron Sligger
TTITLE3=Lacargo - Rebase
TTITLE4=Espuma - Reality (In my Brain)
TTITLE5=Nightbass Dj Team - Some Bass
TTITLE6=Dj Session One - Dreams in my Fantasy 2003
TTITLE7=Cenoginerz - Do you like the Bass
TTITLE8=Ultratech - Better
TTITLE9=Super Marco May vs. Jimmy the Sound - Crazy limit
TTITLE10=Dj Richy T - Platinum
TTITLE11=The KGB'S - Hip Style
TTITLE12=OS4 - All we need is Rock
TTITLE13=Diego Buffoni - Style
TTITLE14=Dj Michael and Deej 010 - Thunder
TTITLE15=Haze&Abyss ft. The Prospektor - 2 Days Off
TTITLE16=Demons on Dope - Die, Die, Die
EXTD=® 2003 ID&T Music BV (www.id-t.com).\n© 2003 Universal TV, a division of Universal Music BV (www.universalmusic.nl).\nID&T Music BV, Universal TV are registered trademarks.\nAll rights reserved. Unauthorised copying, reproduction, hi
EXTD=ring, lending, public performance and broadcasting prohibited.\nMixed and mastered by www.arjanrietvinkproductions.nl.\nGraphic Design by Voutloos.
EXTT0=Igor S. Mix
EXTT1=
EXTT2=
EXTT3=
EXTT4=Gary D. Remix
EXTT5=Michael Flusseder Mix
EXTT6=Blutonium Hardstyle Remix
EXTT7=www.djzany.nl Remix
EXTT8=
EXTT9=
EXTT10=
EXTT11=DJ Stardus Remix
EXTT12=Club Mix
EXTT13=Tanzenden Mix
EXTT14=
EXTT15=
EXTT16=BMA Flase Mix
PLAYORDER=
